<!DOCTYPE svg PUBLIC "-//W3C//DTD SVG 1.1//EN" "http://www.w3.org/Graphics/SVG/1.1/DTD/svg11.dtd">
<!-- Uploaded to: SVG Repo, www.svgrepo.com, Transformed by: SVG Repo Mixer Tools -->
<svg fill="#000000" height="256px" width="256px" version="1.1" xmlns="http://www.w3.org/2000/svg" viewBox="0 0 278.00 278.00" xmlns:xlink="http://www.w3.org/1999/xlink" enable-background="new 0 0 278.004 278.004" data-darkreader-inline-fill="" style="--darkreader-inline-fill: #000000; --darkreader-inline-stroke: #dcdbd8;" stroke="#000000" stroke-width="0.00278004" data-darkreader-inline-stroke="">
<g id="SVGRepo_bgCarrier" stroke-width="0"/>
<g id="SVGRepo_tracerCarrier" stroke-linecap="round" stroke-linejoin="round"/>
<g id="SVGRepo_iconCarrier"> <g> <path d="m119.818,152.941c3.313,0 6-2.687 6-6s-2.687-6-6-6h-3.518v-50.227c0-3.313-2.687-6-6-6s-6,2.687-6,6v50.227h-7.465v-57.583c0-3.313-2.687-6-6-6s-6,2.687-6,6v57.583h-7.464v-28.698c0-3.313-2.687-6-6-6s-6,2.687-6,6v28.698h-1.23c-3.313,0-6,2.687-6,6s2.687,6 6,6h55.677z"/> <path d="m275.913,143.728l-25.422-42.021c-3.244-5.36-9.15-8.69-15.415-8.69h-61.571v-36.768c6.034-1.784 10.453-7.368 10.453-13.973 0-8.037-6.538-14.576-14.575-14.576h-154.808c-8.037,0.001-14.575,6.539-14.575,14.577 0,6.605 4.419,12.189 10.453,13.973v117.385c0,3.313 2.687,6 6,6h45.01l-13.88,58.669h-6.793c-3.313,0-6,2.687-6,6s2.687,6 6,6h19.617c3.313,0 6-2.687 6-6s-2.687-6-6-6h-0.493l13.88-58.669h36.37l13.88,58.669h-0.493c-3.313,0-6,2.687-6,6s2.687,6 6,6h19.617c3.313,0 6-2.687 6-6s-2.687-6-6-6h-6.793l-13.88-58.669h45.009c3.313,0 6-2.687 6-6v-51.729h22.625v120.872c0,3.313 2.687,6 6,6h39.722c3.313,0 6-2.687 6-6v-89.625l3.345,5.529c4.124,6.813 13.021,9.005 19.835,4.881 3.301-1.997 5.627-5.16 6.549-8.906s0.33-7.628-1.667-10.929zm-9.985,8.061c-0.09,0.367-0.354,1.051-1.107,1.506-1.152,0.698-2.659,0.327-3.356-0.825l-14.479-23.934c-1.394-2.304-4.149-3.398-6.746-2.674-2.594,0.724-4.388,3.086-4.388,5.779v28.659h-27.722v-44.395c0-3.313-2.687-6-6-6h-55.886c-1.348,0-2.444-1.096-2.444-2.444s1.097-2.444 2.444-2.444h69.746v39.045c0,3.313 2.687,6 6,6s6-2.687 6-6v-39.045h7.086c2.092,0 4.065,1.113 5.148,2.903l25.421,42.02c0.457,0.754 0.374,1.482 0.283,1.849zm-43.938,26.472c-3.313,0-6,2.687-6,6v52.517h-7.86v-64.478h27.722v64.478h-7.861v-52.517c-0.001-3.314-2.687-6-6.001-6zm-207.415-138.56h154.808c1.42,7.10543e-15 2.575,1.155 2.575,2.576s-1.155,2.576-2.575,2.576h-154.808c-1.42,0-2.575-1.155-2.575-2.576s1.155-2.576 2.575-2.576zm7.878,17.151h139.052v36.166h-15.261c-7.965,0-14.444,6.479-14.444,14.444s6.479,14.444 14.444,14.444h15.261v45.729h-139.052v-110.783z"/> <path d="m221.99,87.997c11.896,0 21.573-9.678 21.573-21.573s-9.678-21.572-21.573-21.572c-11.895,0-21.572,9.677-21.572,21.572s9.678,21.573 21.572,21.573zm0-31.145c5.278,0 9.573,4.294 9.573,9.572s-4.295,9.573-9.573,9.573-9.572-4.294-9.572-9.573 4.294-9.572 9.572-9.572z"/> </g> </g>
</svg>