<svg width="81" height="81" viewBox="0 0 81 81" fill="none" xmlns="http://www.w3.org/2000/svg">
<path fill-rule="evenodd" clip-rule="evenodd" d="M6.13636 38H61.3636C64.7527 38 67.5 41.0221 67.5 44.75V51.5C67.5 55.2279 64.7527 58.25 61.3636 58.25H6.13636C2.74734 58.25 0 55.2279 0 51.5V44.75C0 41.0221 2.74734 38 6.13636 38ZM6.75 44.75V51.5H60.75V44.75H6.75ZM6.13636 11H61.3636C64.7527 11 67.5 14.0221 67.5 17.75V24.5C67.5 28.2279 64.7527 31.25 61.3636 31.25H6.13636C2.74734 31.25 0 28.2279 0 24.5V17.75C0 14.0221 2.74734 11 6.13636 11ZM6.75 17.75V24.5H60.75V17.75H6.75ZM0 65H40.5V71.75H0V65Z" fill="#1CC70A"/>
</svg>
