<svg width="80" height="80" viewBox="0 0 80 80" fill="none" xmlns="http://www.w3.org/2000/svg">
<path opacity="0.4" d="M59.9938 23.8667C59.7938 23.8334 59.5604 23.8334 59.3604 23.8667C54.7604 23.7001 51.0938 19.9334 51.0938 15.2667C51.0938 10.5001 54.9271 6.66675 59.6937 6.66675C64.4604 6.66675 68.2937 10.5334 68.2937 15.2667C68.2604 19.9334 64.5937 23.7001 59.9938 23.8667Z" stroke="#1CC70A" stroke-width="5" stroke-linecap="round" stroke-linejoin="round"/>
<path opacity="0.4" d="M56.5585 48.1341C61.1252 48.9007 66.1585 48.1007 69.6918 45.7341C74.3918 42.6007 74.3918 37.4674 69.6918 34.3341C66.1252 31.9673 61.0252 31.1673 56.4585 31.9673" stroke="#1CC70A" stroke-width="5" stroke-linecap="round" stroke-linejoin="round"/>
<path opacity="0.4" d="M19.8886 23.8667C20.0886 23.8334 20.322 23.8334 20.522 23.8667C25.122 23.7001 28.7886 19.9334 28.7886 15.2667C28.7886 10.5001 24.9553 6.66675 20.1886 6.66675C15.422 6.66675 11.5886 10.5334 11.5886 15.2667C11.622 19.9334 15.2886 23.7001 19.8886 23.8667Z" stroke="#1CC70A" stroke-width="5" stroke-linecap="round" stroke-linejoin="round"/>
<path opacity="0.4" d="M23.3251 48.1341C18.7584 48.9007 13.7251 48.1007 10.1917 45.7341C5.49175 42.6007 5.49175 37.4674 10.1917 34.3341C13.7584 31.9673 18.8584 31.1673 23.4251 31.9673" stroke="#1CC70A" stroke-width="5" stroke-linecap="round" stroke-linejoin="round"/>
<path d="M40.0004 48.7673C39.8004 48.734 39.5671 48.734 39.3671 48.7673C34.7671 48.6007 31.1003 44.834 31.1003 40.1673C31.1003 35.4007 34.9337 31.5674 39.7004 31.5674C44.4671 31.5674 48.3004 35.434 48.3004 40.1673C48.2671 44.834 44.6004 48.634 40.0004 48.7673Z" stroke="#1CC70A" stroke-width="5" stroke-linecap="round" stroke-linejoin="round"/>
<path d="M30.3023 59.2682C25.6023 62.4015 25.6023 67.5345 30.3023 70.6678C35.6357 74.2345 44.369 74.2345 49.7023 70.6678C54.4023 67.5345 54.4023 62.4015 49.7023 59.2682C44.4023 55.7348 35.6357 55.7348 30.3023 59.2682Z" stroke="#1CC70A" stroke-width="5" stroke-linecap="round" stroke-linejoin="round"/>
</svg>
