<svg width="81" height="81" viewBox="0 0 81 81" fill="none" xmlns="http://www.w3.org/2000/svg">
<path d="M15.9531 34.7586C18.5862 34.0531 20.1488 31.3466 19.4433 28.7135C18.7378 26.0804 16.0313 24.5178 13.3982 25.2233C10.7652 25.9288 9.20254 28.6353 9.90804 31.2684C10.6135 33.9014 13.32 35.4641 15.9531 34.7586Z" fill="#1CC70A"/>
<path d="M23.6673 61.6993H17.6556C17.6556 61.6993 17.3392 61.6993 17.0861 61.6993C14.365 61.4462 12.0236 59.4844 11.3275 56.7633L7.21418 41.4493C6.96105 40.5633 6.07512 40.1204 5.31574 40.3102C4.4298 40.5633 3.98684 41.4493 4.17668 42.2087L8.22668 57.5227C9.30246 61.5094 12.6564 64.4204 16.7696 64.7368C17.1493 64.8001 17.5923 64.8001 17.5923 64.8001H23.604C24.49 64.8001 25.1228 64.104 25.1861 63.218C25.1861 62.3321 24.5532 61.6993 23.6673 61.6993Z" fill="#1CC70A"/>
<path d="M30.7548 53.0929H22.5283C22.3384 49.9921 21.8322 46.8914 21.0728 43.7906C21.0095 43.5375 20.8197 42.9046 20.8197 42.8414C19.7439 38.8546 15.947 36.3234 11.9603 36.7031C11.9603 36.7031 11.4541 36.7664 11.3275 36.7664C9.87202 37.1461 8.98608 38.6648 9.36577 40.1836L13.6056 55.9406C14.0486 57.7125 15.5673 59.0414 17.4658 59.1679H17.8455H27.6541V70.432C27.6541 72.1406 28.983 73.5328 30.7548 73.5328C32.4634 73.5328 33.8556 72.2039 33.8556 70.432V56.1937C33.8556 55.3711 33.5392 54.6117 32.9064 54.0421C32.3369 53.4093 31.5142 53.0929 30.7548 53.0929Z" fill="#1CC70A"/>
<path d="M70.8307 31.3075C71.5362 28.6744 69.9736 25.9679 67.3405 25.2624C64.7074 24.5569 62.001 26.1196 61.2955 28.7526C60.59 31.3857 62.1526 34.0922 64.7857 34.7977C67.4188 35.5032 70.1252 33.9406 70.8307 31.3075Z" fill="#1CC70A"/>
<path d="M57.0798 61.699H63.0915C63.0915 61.699 63.4079 61.699 63.661 61.699C66.3821 61.4459 68.7235 59.4842 69.4196 56.7631L73.5329 41.449C73.786 40.5631 74.672 40.1201 75.4313 40.31C76.3173 40.5631 76.7603 41.449 76.5704 42.2084L72.5204 57.5225C71.4446 61.5092 68.0907 64.4201 63.9774 64.7365C63.5978 64.7998 63.1548 64.7998 63.1548 64.7998H57.1431C56.2571 64.7998 55.6243 64.1037 55.561 63.2178C55.561 62.3319 56.2571 61.699 57.0798 61.699Z" fill="#1CC70A"/>
<path d="M49.9924 53.0929H58.2189C58.4088 49.9921 58.915 46.8914 59.6744 43.7906C59.7377 43.5375 59.9275 42.9046 59.9275 42.8414C61.0033 38.8546 64.8002 36.3234 68.7869 36.7031C68.7869 36.7031 69.2932 36.7664 69.4197 36.7664C70.8752 37.1461 71.7611 38.6648 71.3814 40.1836L67.0783 55.9406C66.6354 57.7125 65.1166 59.0414 63.2182 59.1679H62.8385H53.0932V70.432C53.0932 72.1406 51.7643 73.5328 49.9924 73.5328C48.2205 73.5328 46.8916 72.2039 46.8916 70.432V56.1937C46.8916 55.3711 47.208 54.6117 47.8408 54.0421C48.4104 53.4093 49.233 53.0929 49.9924 53.0929Z" fill="#1CC70A"/>
<path d="M56.5735 44.8032H24.5532V48.6001H56.5735V44.8032Z" fill="#1CC70A"/>
<path d="M40.5633 31.8938C43.0797 31.8938 45.1196 29.8538 45.1196 27.3375C45.1196 24.8212 43.0797 22.7812 40.5633 22.7812C38.047 22.7812 36.0071 24.8212 36.0071 27.3375C36.0071 29.8538 38.047 31.8938 40.5633 31.8938Z" fill="#1CC70A"/>
<path d="M33.2227 42.9681V40.247H33.1594C33.1594 39.9306 33.4125 39.6774 33.7289 39.6774C34.0453 39.6774 34.2984 39.9306 34.2984 40.247V42.9681H46.8914V40.247H46.8281C46.8281 39.9306 47.0813 39.6774 47.3977 39.6774C47.7141 39.6774 47.9672 39.9306 47.9672 40.247V42.9681H51.8906V39.1079C51.8906 35.9438 49.3594 33.4126 46.1953 33.4126H34.8047C31.6406 33.4126 29.1094 35.9438 29.1094 39.1079V42.9681H33.2227Z" fill="#1CC70A"/>
</svg>
