<svg width="80" height="80" viewBox="0 0 80 80" fill="none" xmlns="http://www.w3.org/2000/svg">
<g clip-path="url(#clip0_269_63)">
<path d="M64.0786 12.8374C61.7609 14.8903 58.9136 17.1049 56.1472 17.6664C51.0114 18.7103 45.4883 16.3077 41.2459 16.9502C40.97 16.9933 40.7038 17.0435 40.4403 17.0881C39.7156 16.9013 38.9533 16.7452 38.1478 16.6225C37.5666 16.5347 36.9825 16.4985 36.4 16.4985C34.7303 16.5025 33.058 16.7786 31.4037 17.0322C29.748 17.2886 28.1133 17.5283 26.5705 17.5283C25.7578 17.5283 24.9733 17.4642 24.2208 17.3083C23.1991 17.1049 22.0883 16.5919 20.9748 15.8742C19.8584 15.1619 18.7436 14.2477 17.687 13.3139C17.202 12.8791 16.6517 12.5474 16.0717 12.3258C15.4906 12.1056 14.8788 12.0039 14.2808 12.0053C13.3303 12.0053 12.4147 12.2506 11.552 12.6325C10.7911 12.9713 10.0636 13.4199 9.35844 13.9496C8.12219 14.8708 6.94875 16.0428 5.86172 17.353C4.23391 19.3208 2.79703 21.6024 1.74609 23.8531C1.22078 24.9819 0.79 26.1025 0.48625 27.1867C0.1825 28.2711 0 29.3163 0 30.3225C0 30.8522 0.05 31.3733 0.178438 31.8806C0.306562 32.3922 0.514219 32.8938 0.827969 33.3467C0.924062 33.4861 1.02578 33.5977 1.15969 33.698C1.17922 33.7147 1.84813 34.2472 2.57422 34.9411C2.93797 35.2908 3.31438 35.6799 3.62781 36.0533C3.93859 36.4156 4.18109 36.778 4.27172 36.9802C4.68266 37.8513 5.72938 39.9753 7.11891 42.3514C7.81563 43.5388 8.59891 44.7889 9.43922 45.9819C9.86438 46.5813 10.3048 47.1708 10.7564 47.7283C9.52578 49.2528 9.53281 51.4911 10.8789 53.0061C12.3786 54.7008 14.9652 54.8555 16.6572 53.3546L16.7742 53.2499C16.0455 54.7036 16.2223 56.5153 17.3664 57.8058C18.8647 59.4978 21.4527 59.6538 23.1461 58.1528L23.8109 57.5478C22.9022 59.0405 23.0234 61.0141 24.243 62.391C25.7453 64.08 28.332 64.2363 30.0253 62.7408L31.0483 61.8125C30.0825 63.3178 30.1858 65.3344 31.4275 66.7364C32.9256 68.4285 35.5137 68.5858 37.207 67.085L38.8627 65.6635C39.0187 65.7386 39.1708 65.8069 39.3116 65.8724L40.4433 66.533L40.4334 66.5247C40.9994 66.8619 41.5847 67.135 42.1938 67.326C42.8014 67.5169 43.4328 67.6285 44.0753 67.6285C44.7708 67.6285 45.4802 67.4947 46.1462 67.1991C46.8097 66.9066 47.4202 66.4522 47.9275 65.878C48.5337 65.1949 48.9366 64.3936 49.1414 63.5589C49.7448 63.7777 50.3777 63.8877 51.0047 63.8877C51.7587 63.8877 52.5128 63.7316 53.2164 63.4224C53.9189 63.113 54.5698 62.6489 55.1091 62.0399C55.7781 61.2874 56.2003 60.3911 56.3828 59.4628C56.7425 59.5353 57.1048 59.5756 57.4672 59.5756C58.2253 59.5756 58.9792 59.4224 59.6816 59.1103C60.3855 58.8022 61.0363 58.3369 61.5756 57.7291C62.3086 56.9041 62.7422 55.9075 62.8898 54.8874C63.0487 54.9013 63.2061 54.9069 63.3608 54.9069C64.2667 54.9069 65.1559 54.7116 65.9809 54.3633C66.8003 54.0121 67.5655 53.5021 68.1802 52.8121C68.7516 52.1639 69.1836 51.4086 69.493 50.5947C69.8009 49.778 69.9808 48.9069 69.9836 48.0136C69.9836 47.6875 69.9556 47.3586 69.9 47.0325C73.0537 43.5231 74.7234 37.6782 75.4469 36.145C76.2803 34.3722 79.4286 31.8552 79.4286 31.8552C82.8236 26.9553 70.2414 7.37565 64.0786 12.8374ZM66.4297 49.4383C66.2513 49.9149 65.9892 50.3525 65.7316 50.6396C65.4959 50.9086 65.128 51.1692 64.6987 51.3531C64.2709 51.5344 63.7873 51.6333 63.3608 51.6333C63.0808 51.6333 62.8228 51.59 62.6138 51.5205C62.6012 51.5149 62.5886 51.5108 62.5789 51.5064L57.9073 46.9992C57.255 46.3722 56.2195 46.3917 55.5923 47.0411C54.9639 47.6921 54.982 48.7289 55.6327 49.3561L59.3998 52.9924C59.4152 53.0285 59.4248 53.0635 59.443 53.0997C59.5977 53.4077 59.6786 53.7533 59.6786 54.0961C59.6786 54.6228 59.5002 55.133 59.1223 55.5567C58.9036 55.8077 58.6444 55.9889 58.3614 56.1142C58.0812 56.2396 57.7747 56.3038 57.4667 56.3038C56.9427 56.301 56.4327 56.1225 56.0061 55.7463L55.9114 55.6599C55.8905 55.6403 55.8794 55.618 55.8598 55.5958L51.7652 51.3227C51.1395 50.6678 50.1025 50.6453 49.453 51.2697C48.7994 51.8941 48.7756 52.9338 49.3986 53.5861L52.873 57.2125C52.88 57.225 52.8855 57.2403 52.8925 57.2514C53.1058 57.5999 53.2131 58.0013 53.2131 58.4039C53.2117 58.9322 53.0333 59.4438 52.6569 59.8688H52.6583C52.4367 60.1167 52.1775 60.298 51.8973 60.4263C51.6159 60.5489 51.3092 60.6102 51.0039 60.6102C50.4772 60.6102 49.963 60.4317 49.5378 60.0571L49.4752 60.0055L48.2095 58.988L46.1344 56.7861C45.5142 56.1296 44.4759 56.0989 43.8195 56.7192C43.1616 57.338 43.1309 58.3777 43.7511 59.0342L45.7205 61.1233C45.9225 61.4663 46.0312 61.8536 46.0312 62.2466C46.027 62.7706 45.85 63.2835 45.4766 63.7044C45.2508 63.9594 45.0375 64.1072 44.8159 64.2063C44.5944 64.3025 44.3587 64.3539 44.0745 64.3553C43.8111 64.3553 43.5114 64.3092 43.177 64.2033C42.8425 64.0974 42.4816 63.933 42.108 63.7128L42.0983 63.7044L41.5186 63.3699C43.1198 61.8591 43.2452 59.3408 41.7748 57.6808C40.2947 56.0139 37.7555 55.8439 36.065 57.2796L36.3702 57.0036C38.0648 55.5055 38.2195 52.9174 36.7186 51.2255C35.2217 49.5335 32.6323 49.3775 30.9405 50.8771L29.9369 51.7816C30.9069 50.2807 30.8038 48.2599 29.5606 46.8577C28.0595 45.1658 25.4744 45.0083 23.7809 46.5092L22.4487 47.7217C23.0731 46.3058 22.8667 44.5902 21.77 43.3553C20.2703 41.6621 17.6823 41.5074 15.9917 43.0055L13.1725 45.5058C12.817 45.0611 12.4616 44.5858 12.1133 44.0925C10.9594 42.4536 9.875 40.625 9.01516 39.0586C8.15656 37.4921 7.51406 36.1821 7.23391 35.5842C7.08609 35.2706 6.91062 34.9836 6.72094 34.7077C6.38922 34.231 6.00875 33.7822 5.62125 33.3697C5.04438 32.7466 4.44234 32.1975 3.98234 31.7975C3.76219 31.6052 3.57531 31.4449 3.43609 31.3321C3.40687 31.2664 3.37906 31.1872 3.35391 31.0867C3.30656 30.8946 3.27297 30.6367 3.27297 30.3231C3.27297 29.8047 3.36359 29.1469 3.54891 28.4053C3.87359 27.1121 4.49094 25.5831 5.30219 24.0599C6.51875 21.766 8.18156 19.4664 9.87625 17.8161C10.7236 16.9869 11.5737 16.3249 12.3459 15.8942C12.7305 15.6811 13.0944 15.5222 13.4189 15.4246C13.7436 15.3242 14.0322 15.2797 14.2802 15.2797C14.5184 15.2811 14.7192 15.3172 14.9156 15.3883C15.108 15.4664 15.3031 15.5752 15.515 15.7631C16.6369 16.7597 17.8675 17.7728 19.2069 18.6314C20.5419 19.4858 21.9886 20.1966 23.5675 20.5199C24.5808 20.7261 25.5842 20.8013 26.5697 20.8013C28.4384 20.7999 30.2378 20.5255 31.9033 20.2689C32.3227 20.2021 32.7323 20.1406 33.1339 20.0794C31.8838 20.9406 30.6739 21.9622 29.3877 23.1622C25.7167 26.5864 22.5516 30.7689 20.7956 32.6699C19.0409 34.5681 22.305 37.8628 27.5006 36.3521C32.6934 34.8441 34.9317 30.9696 34.9317 30.9696L41.4528 28.6296L47.925 30.1111L63.5691 44.1956L66.2728 46.8102L66.3258 46.8549C66.4344 46.9552 66.518 47.0722 66.5905 47.2617C66.6602 47.4513 66.7077 47.7077 66.7077 48.0144C66.7098 48.4446 66.6123 48.9616 66.4297 49.4383Z" fill="#1CC70A"/>
</g>
<defs>
<clipPath id="clip0_269_63">
<rect width="80" height="80" fill="white"/>
</clipPath>
</defs>
</svg>
